<?xml version="1.0" encoding="UTF-8" standalone="no"?>
<!DOCTYPE svg PUBLIC "-//W3C//DTD SVG 20010904//EN" "http://www.w3.org/TR/2001/REC-SVG-20010904/DTD/svg10.dtd">
<svg version="1.0" xmlns="http://www.w3.org/2000/svg" width="900.000000pt" height="435.000000pt" viewBox="0 0 900.000000 435.000000" preserveAspectRatio="xMidYMid meet">
<metadata>
Created by potrace 1.10, written by Peter Selinger 2001-2011
</metadata>
<g transform="translate(0.000000,435.000000) scale(0.100000,-0.100000)" fill="#204060" stroke="none">
<path d="M0 2175 l0 -2175 4500 0 4500 0 0 2175 0 2175 -4500 0 -4500 0 0 -2175z m5525 1692 c283 -55 447 -174 515 -373 19 -58 23 -89 23 -189 -1 -120 -9 -159 -56 -255 -27 -56 -121 -162 -199 -224 -103 -83 -192 -135 -406 -236 -231 -110 -237 -114 -236 -142 1 -12 19 -71 40 -130 25 -69 35 -111 29 -117 -7 -7 -1507 -18 -1642 -12 -7 1 -13 9 -13 19 0 20 92 93 195 154 77 47 301 158 385 192 36 15 72 30 80 35 9 5 30 12 47 15 47 11 64 34 53 76 -8 32 -69 208 -131 380 -20 55 -24 84 -24 190 0 121 1 127 33 189 56 111 112 172 225 248 131 87 325 160 502 188 118 19 466 14 580 -8z m2209 -695 c15 -18 15 -23 -8 -83 -13 -35 -40 -111 -59 -169 -35 -101 -73 -207 -139 -390 -16 -47 -31 -101 -32 -120 l-1 -35 238 -3 c194 -2 239 -5 243 -17 7 -17 -71 -151 -93 -159 -20 -8 -1521 -9 -1533 -1 -6 3 -10 14 -10 23 0 21 44 130 58 144 6 6 39 18 74 28 249 72 416 165 539 299 77 85 170 212 225 311 21 36 52 91 71 122 l34 58 177 3 c97 1 182 4 188 5 6 1 18 -6 28 -16z m-5768 -817 c4 -8 -1 -30 -10 -49 -9 -19 -16 -39 -16 -44 0 -6 -8 -24 -17 -41 l-18 -30 -348 -3 c-192 -2 -357 0 -368 4 -10 4 -19 16 -19 27 0 23 36 120 52 138 8 10 95 13 375 13 315 0 364 -2 369 -15z m1141 -1 c7 -20 -24 -119 -47 -146 -15 -19 -32 -19 -370 -18 -222 0 -358 4 -365 11 -10 10 26 131 47 157 8 9 94 12 370 12 323 0 359 -2 365 -16z m-1317 -491 c-1 -21 -31 -108 -48 -140 -7 -12 -12 -30 -12 -40 0 -11 -4 -23 -9 -28 -4 -6 -20 -46 -34 -90 -14 -44 -38 -113 -52 -154 -14 -40 -24 -80 -21 -87 4 -11 42 -14 184 -14 202 0 200 -1 226 81 13 40 90 259 148 419 l23 65 364 3 c201 1 369 -2 373 -6 11 -11 -2 -67 -32 -142 -12 -30 -25 -68 -30 -85 -5 -16 -18 -55 -30 -85 -11 -30 -30 -82 -41 -115 -11 -33 -24 -68 -30 -77 -5 -10 -9 -27 -9 -38 0 -20 6 -20 269 -20 149 0 272 4 275 9 3 5 -6 42 -20 82 -22 62 -26 91 -26 184 0 110 26 249 53 281 9 11 85 14 410 14 219 0 400 -4 403 -8 3 -5 -7 -37 -21 -73 -55 -133 -39 -290 38 -374 79 -85 194 -115 455 -115 232 0 227 -3 186 111 -72 198 -85 236 -92 264 -5 17 -20 61 -34 100 -15 38 -24 75 -22 82 4 10 81 13 364 13 l359 0 12 -27 c14 -29 67 -170 81 -213 5 -14 18 -50 30 -80 11 -30 32 -87 45 -127 13 -39 31 -83 41 -97 l16 -26 374 0 374 0 15 24 c8 13 29 63 45 112 16 49 50 148 75 219 26 72 51 146 57 165 6 19 15 38 22 42 6 4 174 8 374 8 l362 0 0 -24 c0 -13 -7 -37 -15 -52 -8 -16 -15 -38 -15 -50 0 -11 -4 -24 -8 -30 -5 -5 -19 -40 -31 -79 -12 -38 -26 -79 -31 -90 -18 -45 -69 -191 -71 -205 -1 -8 -1 -21 0 -27 1 -10 114 -13 531 -13 608 0 556 10 501 -98 -35 -69 -119 -151 -186 -182 -129 -57 -95 -55 -805 -55 -605 0 -657 1 -685 17 -16 10 -35 18 -41 18 -13 0 -68 58 -83 88 -16 30 -26 28 -85 -17 -28 -22 -90 -55 -136 -73 l-85 -33 -1930 0 c-1861 0 -1932 1 -1985 19 -66 22 -93 45 -121 103 -22 46 -34 47 -73 4 -28 -30 -113 -78 -188 -104 -59 -20 -80 -22 -358 -22 -276 0 -298 2 -343 21 -65 28 -132 86 -159 137 -31 59 -32 215 -1 302 31 87 102 277 112 300 5 11 19 48 31 83 l22 62 374 0 c350 0 374 -1 374 -17z"/>
<path d="M5175 3490 c-16 -5 -46 -13 -65 -18 -43 -11 -72 -27 -126 -69 -86 -67 -95 -148 -35 -324 53 -157 58 -169 77 -176 33 -12 279 129 361 207 112 107 122 212 29 305 -58 58 -173 94 -241 75z"/>
</g>
</svg>