<svg version="1.0" xmlns="http://www.w3.org/2000/svg" width="220.000000pt" height="88.000000pt" viewBox="0 0 220.000000 88.000000" preserveAspectRatio="xMidYMid meet">
    <g transform="translate(0.000000,88.000000) scale(0.100000,-0.100000)" fill="#ffffff" stroke="none">
        <path d="M1225 854 c-214 -55 -253 -127 -179 -326 l13 -36 -103 -51 c-165 -82 -167 -81 108 -81 l236 0 -6 43 c-7 49 -2 55 66 81 64 25 141 80 170 122 32 48 34 130 4 171 -34 47 -104 74 -203 78 -47 2 -95 2 -106 -1z m133 -110 c35 -24 46 -62 27 -91 -21 -31 -122 -96 -140 -89 -7 2 -19 30 -26 62 -11 48 -11 60 2 83 27 48 94 65 137 35z"/>
        <path d="M1922 603 c-56 -98 -172 -193 -234 -193 -15 0 -38 -27 -38 -44 0 -3 100 -6 223 -6 225 0 247 3 247 37 0 9 -19 13 -70 13 -40 0 -70 4 -70 10 0 5 11 38 24 72 30 82 46 131 46 146 0 8 -18 12 -50 12 -50 0 -51 -1 -78 -47z"/>
        <path d="M195 403 c-73 -4 -94 -12 -95 -36 0 -4 48 -6 108 -5 102 3 107 4 110 26 3 18 -1 22 -20 20 -13 -1 -59 -4 -103 -5z"/>
        <path d="M535 401 c-65 -5 -80 -9 -83 -23 -3 -16 7 -18 102 -18 58 0 106 4 106 9 0 5 3 16 6 25 5 13 0 16 -22 14 -16 -1 -65 -4 -109 -7z"/>
        <path d="M37 192 c-33 -82 -37 -156 -8 -172 11 -5 71 -10 133 -10 95 0 118 3 146 20 40 24 39 24 45 1 4 -18 29 -19 574 -26 611 -8 671 -5 705 38 l18 22 0 -22 c0 -15 8 -25 23 -28 12 -4 123 -5 246 -3 220 3 223 3 242 27 10 13 19 27 19 32 0 5 -69 9 -153 9 -85 0 -156 2 -159 6 -3 3 5 35 18 72 38 107 41 103 -77 100 l-102 -3 -11 -45 c-7 -25 -21 -63 -31 -85 l-20 -40 -111 -3 c-81 -2 -114 1 -121 10 -14 17 -50 105 -57 141 l-6 27 -100 0 c-116 0 -113 4 -76 -102 13 -37 21 -69 18 -72 -3 -4 -37 -6 -76 -6 -115 0 -174 50 -162 135 l7 45 -106 0 -105 0 -11 -27 c-9 -25 -9 -45 3 -128 3 -18 -3 -20 -81 -23 -46 -2 -88 1 -93 6 -6 6 1 35 16 72 41 101 42 100 -73 100 l-98 0 -35 -87 -35 -88 -53 -3 c-82 -5 -83 -3 -53 75 43 114 50 103 -68 103 l-104 0 -28 -68z"/>
    </g>
</svg>
